<svg xmlns="http://www.w3.org/2000/svg" xmlns:xlink="http://www.w3.org/1999/xlink" x="0" y="0" width="662" height="10" style="
        width:662px;
        height:10px;
        background: transparent;
        fill: none;
">
        
        
        <svg xmlns="http://www.w3.org/2000/svg" class="role-diagram-draw-area"><g class="shapes-region" style="stroke: black; fill: none;"><g class="grouped-shape"><g class="composite-shape"><path class="real" d=" M0,-1.17 L60,-1.17 L60,12 L0,12 Z" style="stroke-width: 1; stroke: rgb(0, 0, 0); stroke-opacity: 0; fill: rgb(217, 56, 50); fill-opacity: 1;"/></g><g class="composite-shape"><path class="real" d=" M60,-1.17 L120,-1.17 L120,12 L60,12 Z" style="stroke-width: 1; stroke: rgb(0, 0, 0); stroke-opacity: 0; fill: rgb(239, 135, 64); fill-opacity: 1;"/></g><g class="composite-shape"><path class="real" d=" M120,-1.17 L180,-1.17 L180,12 L120,12 Z" style="stroke-width: 1; stroke: rgb(0, 0, 0); stroke-opacity: 0; fill: rgb(252, 241, 81); fill-opacity: 1;"/></g><g class="composite-shape"><path class="real" d=" M180,-1.17 L240,-1.17 L240,12 L180,12 Z" style="stroke-width: 1; stroke: rgb(0, 0, 0); stroke-opacity: 0; fill: rgb(85, 172, 89); fill-opacity: 1;"/></g><g class="composite-shape"><path class="real" d=" M240,-1.17 L300,-1.17 L300,12 L240,12 Z" style="stroke-width: 1; stroke: rgb(0, 0, 0); stroke-opacity: 0; fill: rgb(22, 23, 243); fill-opacity: 1;"/></g><g class="composite-shape"><path class="real" d=" M300,-1.17 L360,-1.17 L360,12 L300,12 Z" style="stroke-width: 1; stroke: rgb(0, 0, 0); stroke-opacity: 0; fill: rgb(130, 66, 136); fill-opacity: 1;"/></g><g class="composite-shape"><path class="real" d=" M360,-1.17 L420,-1.17 L420,12 L360,12 Z" style="stroke-width: 1; stroke: rgb(0, 0, 0); stroke-opacity: 0; fill: rgb(254, 254, 254); fill-opacity: 1;"/></g><g class="composite-shape"><path class="real" d=" M420,-1.17 L480,-1.17 L480,12 L420,12 Z" style="stroke-width: 1; stroke: rgb(0, 0, 0); stroke-opacity: 0; fill: rgb(242, 177, 200); fill-opacity: 1;"/></g><g class="composite-shape"><path class="real" d=" M480,-1.17 L540,-1.17 L540,12 L480,12 Z" style="stroke-width: 1; stroke: rgb(0, 0, 0); stroke-opacity: 0; fill: rgb(162, 249, 251); fill-opacity: 1;"/></g><g class="composite-shape"><path class="real" d=" M540,-1.17 L600,-1.17 L600,12 L540,12 Z" style="stroke-width: 1; stroke: rgb(0, 0, 0); stroke-opacity: 0; fill: rgb(116, 79, 56); fill-opacity: 1;"/></g><g class="composite-shape"><path class="real" d=" M600,-1.17 L660,-1.17 L660,12 L600,12 Z" style="stroke-width: 1; stroke: rgb(0, 0, 0); stroke-opacity: 0; fill: rgb(2, 2, 2); fill-opacity: 1;"/></g></g><g/></g><g/><g/><g/></svg>
        <svg xmlns="http://www.w3.org/2000/svg" xmlns:xlink="http://www.w3.org/1999/xlink" width="660" height="8" style="width:660px;height:8px;font-family:Asana-Math, Asana;background:transparent;"></svg>
</svg>
